{"title":"My.Sisters.Hot.Friend.Erica.Fontes.XXXmegathor.mp4","uid":10628621,"size":758377529,"categoryP":"porn","categoryS":"movies","magnet":"?xt=urn:btih:6d6ae59ba24b38c9de8e24ba94d0960203885573&amp;dn=My.Sisters.Hot.Friend.Erica.Fontes.XXXmegathor.mp4&amp;tr=udp%3A%2F%2Ftracker.openbittorrent.com%3A80&amp;tr=udp%3A%2F%2Fopen.demonii.com%3A1337&amp;tr=udp%3A%2F%2Ftracker.coppersurfer.tk%3A6969&amp;tr=udp%3A%2F%2Fexodus.desync.com%3A6969","seeders":1,"leechers":0,"uploader":"XXXmegathor","files":1,"time":1406278878,"description":"My.Sisters.Hot.Friend.Erica.Fontes.XXXmegathor\n\nSCREENIES &lt;a href=&quot;\nhttp://xxxtrapics.com/image/RW&quot; rel=&quot;nofollow&quot; target=&quot;_NEW&quot;&gt;\nhttp://xxxtrapics.com/image/RW&lt;/a&gt;\n\n\nDuration : 32mn 26s\nBit rate mode : Variable\nBit rate : 2 902 Kbps\nMaximum bit rate : 3 000 Kbps\nWidth : 768 pixels\nHeight : 432 pixels\nDisplay aspect ratio : 16:9\nFrame rate mode : Constant\nFrame rate : 29.970 fps\nColor space : YUV\nChroma subsampling : 4:2:0\nBit depth : 8 bits\nScan type : Progressive\nBits/(Pixel*Frame) : 0.292\nStream size : 674 MiB (93%)\nLanguage : English\nEncoded date : UTC 2012-03-27 17:18:45\nTagged date : UTC 2012-03-27 17:18:45\n\nAudio\nID : 2\nFormat : AAC\nFormat/Info : Advanced Audio Codec\nFormat profile : LC\nCodec ID : 40\nDuration : 32mn 26s\nBit rate mode : Constant\nBit rate : 66.15 Kbps\nChannel(s) : 2 channels\nChannel positions : Front: L R\nSampling rate : 44.1 KHz\nCompression mode : Lossy\nStream size : 15.7 MiB (2%)\nLanguage : English\nEncoded date : UTC 2012-03-27 17:18:45\nTagged date : UTC 2012-03-27 17:18:45\n\n","torrent":{"xt":"urn:btih:6d6ae59ba24b38c9de8e24ba94d0960203885573","amp;dn":"My.Sisters.Hot.Friend.Erica.Fontes.XXXmegathor.mp4","amp;tr":["udp%3A%2F%2Ftracker.openbittorrent.com%3A80","udp%3A%2F%2Fopen.demonii.com%3A1337","udp%3A%2F%2Ftracker.coppersurfer.tk%3A6969","udp%3A%2F%2Fexodus.desync.com%3A6969"],"infoHash":"6d6ae59ba24b38c9de8e24ba94d0960203885573","infoHashBuffer":{"type":"Buffer","data":[109,106,229,155,162,75,56,201,222,142,36,186,148,208,150,2,3,136,85,115]},"announce":[],"urlList":[]}}